<svg width="21" height="31" viewBox="0 0 21 31" fill="none" xmlns="http://www.w3.org/2000/svg">
<path d="M10.1871 0.933594C4.70531 0.933594 0.271729 5.55053 0.271729 11.259C0.271729 19.0031 10.1871 30.4348 10.1871 30.4348C10.1871 30.4348 20.1025 19.0031 20.1025 11.259C20.1025 5.55053 15.6689 0.933594 10.1871 0.933594ZM10.1871 14.9467C9.24791 14.9467 8.34719 14.5582 7.68309 13.8666C7.01898 13.175 6.64589 12.237 6.64589 11.259C6.64589 10.281 7.01898 9.34302 7.68309 8.65146C8.34719 7.95989 9.24791 7.57137 10.1871 7.57137C11.1263 7.57137 12.027 7.95989 12.6911 8.65146C13.3552 9.34302 13.7283 10.281 13.7283 11.259C13.7283 12.237 13.3552 13.175 12.6911 13.8666C12.027 14.5582 11.1263 14.9467 10.1871 14.9467Z" fill="white"/>
</svg>
